# xmcd
#
# Track frame offsets:
#	150
#	11186
#	20990
#	32621
#	43821
#	57306
#	68225
#	78580
#	91407
#	103923
#	114916
#	125303
#	139058
#	152353
#	163268
#	174090
#	185273
#	196611
#	206951
#	218245
#	229254
#	241710
#	256550
#	267100
#	280523
#	289586
#	302492
#	313455
#	323890
#	333734
#
# Disc length: 4569
#
# Revision: 1
# Processed by: cddbd v1.5.1PL0 Copyright (c) Steve Scherf et al.
# Submitted via: EZCDDA 4.3.3.2
# Normalized: r0:TDELIM( - )
#
DISCID=aa11d71e
DTITLE=Various Artist - Doo Wop For Angels   Vol. I
DYEAR=1900
DGENRE=
TTITLE0=Dells - She's Just An Angel
TTITLE1=Tony Allen - I Found An Angel
TTITLE2=Uniques - Tell The Angels
TTITLE3=Squires - Heavenly Angel
TTITLE4=Valtones - Have You Ever Met An Angel
TTITLE5=Schoolboys - Angel Of Love
TTITLE6=Sonnets - Angel Of My Dreams
TTITLE7=Jimmy Clanton - A Letter To An Angel
TTITLE8=Viscaynes - Heavenly Angel
TTITLE9=Gainors - You Must Be An Angel
TTITLE10=Montereys - Angel
TTITLE11=Esquires - Only The Angels Know
TTITLE12=Jayos - Earth Angel
TTITLE13=Vilons - Angel Darling
TTITLE14=Condors - Sweetest Angel
TTITLE15=Orlons - Heart Darling Angel
TTITLE16=De Villes - Goddess Of Angels
TTITLE17=Satellites - Heavenly Angel
TTITLE18=James Powell - Beverly Angel
TTITLE19=Collinars - Devils Angel
TTITLE20=Falcons - Goddess Of Angels
TTITLE21=Harper Brothers - Angel
TTITLE22=Bobby Vee - Devil Or Angel
TTITLE23=Jives - Seven Steps To An Angel
TTITLE24=Preludes - Vanishing Angel
TTITLE25=Twilighters - Half Angel
TTITLE26=Five Schillings - Letter To An Angel
TTITLE27=Playboys - Angel
TTITLE28=Hearts - Angel Baby
TTITLE29=Crests - The Angels Listened In
EXTD=
EXTT0=
EXTT1=
EXTT2=
EXTT3=
EXTT4=
EXTT5=
EXTT6=
EXTT7=
EXTT8=
EXTT9=
EXTT10=
EXTT11=
EXTT12=
EXTT13=
EXTT14=
EXTT15=
EXTT16=
EXTT17=
EXTT18=
EXTT19=
EXTT20=
EXTT21=
EXTT22=
EXTT23=
EXTT24=
EXTT25=
EXTT26=
EXTT27=
EXTT28=
EXTT29=
PLAYORDER=
